<svg xmlns="http://www.w3.org/2000/svg" width="29.161" height="19.139"><defs><style>.a{fill:#5eaab4}</style></defs><path class="a" d="M.456 11.847A.455.455 0 010 11.391a3.194 3.194 0 013.189-3.189.456.456 0 110 .911 2.281 2.281 0 00-2.278 2.278.455.455 0 01-.455.456zm0 0M28.705 11.847a.456.456 0 01-.456-.456 2.281 2.281 0 00-2.278-2.278.456.456 0 010-.911 3.194 3.194 0 013.189 3.189.456.456 0 01-.455.456zm0 0"/><path class="a" d="M25.972 9.113H3.19a.456.456 0 010-.911h22.782a.456.456 0 110 .911zm0 0M.456 16.405A.455.455 0 010 15.95v-4.559a.456.456 0 11.911 0v4.559a.455.455 0 01-.455.455zm0 0"/><path class="a" d="M1.367 17.317A1.369 1.369 0 010 15.947a.456.456 0 01.911 0 .456.456 0 00.456.456.456.456 0 010 .911zm0 0M28.706 16.405a.455.455 0 01-.456-.456V11.39a.456.456 0 11.911 0v4.559a.455.455 0 01-.455.456zm0 0"/><path class="a" d="M27.795 17.317a.456.456 0 110-.911.456.456 0 00.456-.456.456.456 0 01.911 0 1.369 1.369 0 01-1.367 1.367zm0 0"/><path class="a" d="M27.794 17.317H1.367a.456.456 0 010-.911h26.427a.456.456 0 010 .911zm0 0M28.705 15.038H.456a.456.456 0 010-.911h28.25a.456.456 0 010 .911zm0 0"/><path class="a" d="M2.279 19.139a.455.455 0 01-.456-.456v-1.824a.456.456 0 01.911 0v1.822a.455.455 0 01-.455.458zm0 0"/><path class="a" d="M6.835 19.138H2.279a.456.456 0 110-.911h4.556a.456.456 0 010 .911zm0 0"/><path class="a" d="M6.836 19.139a.455.455 0 01-.456-.456v-1.824a.456.456 0 01.911 0v1.822a.455.455 0 01-.455.458zm0 0M22.326 19.139a.455.455 0 01-.456-.456v-1.824a.456.456 0 11.911 0v1.822a.455.455 0 01-.455.458zm0 0"/><path class="a" d="M26.886 19.138h-4.56a.456.456 0 010-.911h4.56a.456.456 0 110 .911zm0 0"/><path class="a" d="M26.882 19.139a.455.455 0 01-.456-.456v-1.824a.456.456 0 01.911 0v1.822a.455.455 0 01-.455.458zm0 0M3.19 9.113a.455.455 0 01-.456-.456v-7.29a.456.456 0 11.911 0v7.289a.455.455 0 01-.456.456zm0 0M25.972 9.113a.455.455 0 01-.456-.456v-7.29a.456.456 0 01.911 0v7.289a.456.456 0 01-.456.456zm0 0M25.059.912H4.102a.456.456 0 110-.911h20.957a.456.456 0 110 .911zm0 0M5.923 7.291a.455.455 0 01-.456-.456 1.369 1.369 0 011.367-1.367.456.456 0 010 .911.456.456 0 00-.456.456.455.455 0 01-.455.456zm0 0M13.215 7.292a.456.456 0 01-.456-.456.456.456 0 00-.456-.455.456.456 0 110-.911 1.368 1.368 0 011.367 1.366.455.455 0 01-.455.456zm0 0"/><path class="a" d="M5.923 9.114a.455.455 0 01-.456-.456V6.835a.456.456 0 01.911 0v1.822a.455.455 0 01-.455.457zm0 0M13.215 9.113a.456.456 0 01-.456-.456V6.836a.456.456 0 11.911 0v1.821a.455.455 0 01-.455.456zm0 0M12.303 6.38h-5.47a.456.456 0 010-.911h5.469a.456.456 0 110 .911zm0 0M15.948 7.291a.455.455 0 01-.456-.456 1.369 1.369 0 011.367-1.367.456.456 0 010 .911.456.456 0 00-.456.456.455.455 0 01-.455.456zm0 0M23.242 7.292a.456.456 0 01-.456-.456.456.456 0 00-.456-.455.456.456 0 110-.911 1.368 1.368 0 011.367 1.366.455.455 0 01-.455.456zm0 0"/><path class="a" d="M15.948 9.114a.455.455 0 01-.456-.457V6.834a.456.456 0 11.911 0v1.823a.455.455 0 01-.455.457zm0 0M23.24 9.113a.456.456 0 01-.456-.456V6.836a.456.456 0 11.911 0v1.821a.455.455 0 01-.455.456zm0 0M22.328 6.38h-5.469a.456.456 0 010-.911h5.469a.456.456 0 010 .911zm0 0M3.19 1.823a.455.455 0 01-.456-.455A1.37 1.37 0 014.102 0a.456.456 0 010 .911.457.457 0 00-.457.457.455.455 0 01-.456.456zm0 0M25.971 1.823a.455.455 0 01-.456-.456.457.457 0 00-.457-.457.456.456 0 110-.911 1.37 1.37 0 011.368 1.368.455.455 0 01-.456.456zm0 0"/></svg>