<svg xmlns="http://www.w3.org/2000/svg" width="17.935" height="17.934"><defs><style>.a{fill:#5eaab4}</style></defs><path class="a" d="M17.465 13.835l-3.63-2.421a1.06 1.06 0 00-1.419.23l-1.057 1.36a.452.452 0 01-.58.122l-.2-.111a12.156 12.156 0 01-3.169-2.488 12.205 12.205 0 01-2.489-3.168l-.11-.2a.453.453 0 01.12-.582l1.358-1.058a1.06 1.06 0 00.231-1.418L4.1.471a1.054 1.054 0 00-1.421-.32l-1.519.912A2.141 2.141 0 00.184 2.33C-.363 4.321.049 7.759 5.112 12.823c4.028 4.028 7.027 5.111 9.088 5.111a5.3 5.3 0 001.4-.183 2.139 2.139 0 001.267-.976l.913-1.517a1.054 1.054 0 00-.315-1.423zm-.2 1.115l-.911 1.518a1.545 1.545 0 01-.912.707c-1.839.5-5.051.087-9.912-4.775S.256 4.327.76 2.488a1.547 1.547 0 01.707-.913L2.985.664a.457.457 0 01.617.139l1.315 1.979 1.1 1.655a.46.46 0 01-.1.616L4.562 6.106a1.046 1.046 0 00-.277 1.343l.108.2a12.679 12.679 0 002.591 3.306 12.692 12.692 0 003.305 2.59l.2.108a1.046 1.046 0 001.343-.277l1.057-1.359a.46.46 0 01.616-.1l3.63 2.421a.457.457 0 01.134.612zM10.163 2.99a5.087 5.087 0 015.081 5.078.3.3 0 00.6 0 5.685 5.685 0 00-5.679-5.679.3.3 0 000 .6z"/><path class="a" d="M10.163 4.784a3.292 3.292 0 013.288 3.288.3.3 0 10.6 0 3.89 3.89 0 00-3.885-3.885.3.3 0 000 .6z"/><path class="a" d="M10.163 6.577a1.5 1.5 0 011.494 1.494.3.3 0 00.6 0 2.094 2.094 0 00-2.092-2.092.3.3 0 100 .6z"/></svg>