<svg xmlns="http://www.w3.org/2000/svg" width="54" height="53.789"><path d="M51.086 33.769h-2.6V35.5H47.1l-.993-6.456a2.583 2.583 0 00-2.567-2.2H26.6a2.583 2.583 0 00-2.567 2.2l-.998 6.456h-1.388v-1.731h-2.6a2.6 2.6 0 100 5.2h2.6v-1.737h1.122l-.158 1.023a6.058 6.058 0 00-2.7 5.038v5.2h1.732v1.727a3.428 3.428 0 00.481 1.732H14.72v-28a12.122 12.122 0 10-5.2 0v28H3.463v1.732H50.22v-1.732h-2.213a3.428 3.428 0 00.481-1.732v-1.732h1.732v-5.2a6.058 6.058 0 00-2.7-5.038l-.158-1.023h1.122v1.732h2.6a2.6 2.6 0 100-5.2zm-31.171 3.463h-.866a.866.866 0 110-1.732h.866zm-6.927 14.72h-1.732V27.708h1.732zm0-25.976h-1.732V24.2c.287.021.573.044.866.044s.578-.023.866-.044zm-.866-3.463a10.39 10.39 0 1110.39-10.39 10.4 10.4 0 01-10.39 10.389zm13.617 6.794a.862.862 0 01.856-.733h16.944a.86.86 0 01.855.734l1.249 8.117a6 6 0 00-1.484-.192H25.976a6.048 6.048 0 00-1.485.191zm-4.093 17.45v-2.6h7.793v2.6zm5.2 3.463a1.732 1.732 0 01-3.463 0v-1.732h3.463zm1.25 1.732a3.428 3.428 0 00.481-1.732v-1.732h12.984v1.732a3.428 3.428 0 00.481 1.732zm3.079-5.2v-3.459a.867.867 0 01.866-.866H38.1a.867.867 0 01.866.866v3.463zm15.582 3.468a1.732 1.732 0 01-3.463 0v-1.732h3.463zm1.732-3.463H40.7v-2.6h7.793zm-.089-4.33h-7.864A2.594 2.594 0 0038.1 40.7h-6.063a2.594 2.594 0 00-2.437 1.727h-7.866a4.337 4.337 0 014.242-3.463h18.183a4.337 4.337 0 014.241 3.463zm2.685-5.2h-.865V35.5h.866a.866.866 0 010 1.732z"/><path d="M13.859 6.061h-5.2v11.256h1.732v-4.329h3.468a3.463 3.463 0 000-6.927zm0 5.2h-3.468V7.793h3.468a1.732 1.732 0 010 3.463zM27 33.789h12v2H27zM41 33.789h1v2h-1zM51 50.789h3v3h-3zM0 50.789h3v3H0z"/></svg>