<svg xmlns="http://www.w3.org/2000/svg" width="19.927" height="19.927"><defs><style>.a{fill:#5eaab4}</style></defs><path class="a" d="M19.922 7.618a.291.291 0 00-.018-.086.349.349 0 00-.017-.042c0-.007 0-.014-.007-.02s-.009-.008-.012-.013a.291.291 0 00-.026-.033.284.284 0 00-.033-.033.323.323 0 00-.033-.026c-.005 0-.008-.009-.013-.012l-2.494-1.462V.332A.332.332 0 0016.937 0H2.988a.332.332 0 00-.332.332v5.559L.163 7.352c-.005 0-.008.009-.013.012a.365.365 0 00-.033.026.343.343 0 00-.033.033.291.291 0 00-.026.033c0 .005-.009.008-.012.013s0 .014-.007.02a.341.341 0 00-.017.042.33.33 0 00-.012.043.354.354 0 00-.011.043v11.314a1 1 0 001 1H18.93a1 1 0 001-1V7.639v-.021zm-7.223 4.445l6.559-3.845v9.948zm6.234-4.425l-1.668.978V6.661zM16.605.664v8.342L9.962 12.9 3.32 9.006V.664zM.663 8.219l6.559 3.845-6.559 6.1zm1.993.4l-1.668-.98 1.668-.978zM18.93 19.263H.999a.332.332 0 01-.308-.211l7.128-6.638 1.98 1.157a.332.332 0 00.336 0l1.975-1.158 7.132 6.639a.332.332 0 01-.308.211zm0 0"/><path class="a" d="M4.981 3.321h9.964a.332.332 0 000-.664H4.981a.332.332 0 100 .664zm0 0M4.981 5.982h9.964a.332.332 0 000-.664H4.981a.332.332 0 100 .664zm0 0M4.981 8.635h9.964a.332.332 0 000-.664H4.981a.332.332 0 100 .664zm0 0"/></svg>