<svg xmlns="http://www.w3.org/2000/svg" width="29.713" height="18.866"><path d="M25.7 8.301a3.392 3.392 0 10-3.892 0 5.878 5.878 0 00-2 1.176 7.606 7.606 0 00-2.751-1.5 4.3 4.3 0 10-4.445 0A7.669 7.669 0 009.89 9.459 5.925 5.925 0 007.9 8.307a3.392 3.392 0 10-3.892 0A5.955 5.955 0 000 13.934v.388a.025.025 0 00.024.024h7.19a7.907 7.907 0 00-.065.994v.4a3.126 3.126 0 003.128 3.128h9.113a3.126 3.126 0 003.128-3.128v-.4a7.907 7.907 0 00-.065-.994h7.237a.025.025 0 00.024-.024v-.388A5.977 5.977 0 0025.7 8.301zM21.3 5.52a2.452 2.452 0 112.5 2.452h-.1a2.448 2.448 0 01-2.4-2.451zm-9.842-1.223a3.357 3.357 0 113.551 3.353h-.388a3.362 3.362 0 01-3.163-3.352zM3.486 5.521a2.452 2.452 0 112.5 2.452h-.095a2.452 2.452 0 01-2.405-2.452zm3.892 7.878H.952a5.023 5.023 0 014.95-4.486h.071a4.971 4.971 0 013.2 1.193 7.719 7.719 0 00-1.795 3.293zm14.186 2.34a2.19 2.19 0 01-2.187 2.187h-9.112a2.19 2.19 0 01-2.187-2.187v-.4a6.753 6.753 0 016.543-6.743c.065.006.135.006.2.006s.135 0 .2-.006a6.753 6.753 0 016.543 6.743zm.7-2.34a7.7 7.7 0 00-1.781-3.269 5 5 0 013.234-1.217h.071a5.023 5.023 0 014.95 4.486z" fill="#5eaab4"/></svg>