<svg xmlns="http://www.w3.org/2000/svg" width="68.351" height="38.409"><path d="M67.305 13.051a3.592 3.592 0 00-2.743-1.34H63.01v-1.255a4.235 4.235 0 00-4.361-4.086H56.6V4.056a4.04 4.04 0 00-1.273-2.917 4.514 4.514 0 00-6 0 4.041 4.041 0 00-1.274 2.918v10.858H20.291V4.057a4.035 4.035 0 00-1.273-2.917 4.514 4.514 0 00-6 0 4.037 4.037 0 00-1.274 2.917v2.314h-2.3a4.246 4.246 0 00-2.876 1.1 3.769 3.769 0 00-1.228 2.757v1.482H3.8a3.606 3.606 0 00-2.754 1.346 4.692 4.692 0 00-1.048 3v6.257a4.687 4.687 0 001.049 3A3.605 3.605 0 003.8 26.662h1.54v1.482a3.771 3.771 0 001.238 2.761 4.241 4.241 0 002.874 1.1h2.3v2.314a4.035 4.035 0 001.273 2.916 4.406 4.406 0 006 0 4.035 4.035 0 001.273-2.916V23.458h27.76v10.858a4.036 4.036 0 001.273 2.916 4.406 4.406 0 006 0 4.039 4.039 0 001.269-2.916v-2.314h2.047a4.235 4.235 0 004.361-4.086v-1.254h1.553a3.6 3.6 0 002.744-1.34 4.669 4.669 0 001.044-2.99v-6.29a4.672 4.672 0 00-1.044-2.991zM3.8 24.526a1.463 1.463 0 01-1.112-.577 2.581 2.581 0 01-.554-1.636v-6.254a2.583 2.583 0 01.556-1.636 1.463 1.463 0 011.11-.577h1.54v10.68zm5.65 5.34a2.134 2.134 0 01-1.43-.535 1.606 1.606 0 01-.546-1.187V10.228a1.606 1.606 0 01.544-1.185 2.141 2.141 0 011.432-.536h2.3v21.359zm8.7 4.45a1.866 1.866 0 01-.6 1.363 2.353 2.353 0 01-3.064 0 1.865 1.865 0 01-.6-1.363V4.056a1.866 1.866 0 01.6-1.363 2.272 2.272 0 013.065 0 1.869 1.869 0 01.6 1.364v30.259zm2.136-12.994V17.05h27.772v4.272zm34.18 12.994a1.866 1.866 0 01-.6 1.363 2.353 2.353 0 01-3.064 0 1.865 1.865 0 01-.6-1.363V4.057a1.866 1.866 0 01.6-1.363 2.272 2.272 0 013.065 0 1.865 1.865 0 01.6 1.363v30.259zm6.408-6.4a2.1 2.1 0 01-2.225 1.95H56.6V8.506h2.047a2.1 2.1 0 012.225 1.95v17.46zm5.34-5.585a2.57 2.57 0 01-.549 1.623 1.449 1.449 0 01-1.1.572H63.01v-10.68h1.553a1.449 1.449 0 011.1.572 2.561 2.561 0 01.549 1.623z"/></svg>