<svg xmlns="http://www.w3.org/2000/svg" width="51.344" height="54.789"><path d="M42.866 0a8.478 8.478 0 00-8.478 8.478v4.492H14.269V8.478a6.2 6.2 0 1112.4 0 1.139 1.139 0 002.278 0 8.478 8.478 0 10-16.955 0v28.786a1.148 1.148 0 001.139 1.2 1.134 1.134 0 001.139-1.139V34.48h20.182v2.847a1.139 1.139 0 102.278 0V8.478a6.169 6.169 0 1112.337 0 1.139 1.139 0 002.278 0A8.478 8.478 0 0042.866 0zm-8.414 32.076H14.269v-4.049h20.182zm0-6.327H14.269V21.7h20.182zm0-6.453H14.269v-4.049h20.182zM48.497 42.895a1.108 1.108 0 00-1.518-.569c-5.694 2.467-8.478 1.265-11.451 0-3.037-1.265-6.137-2.594-11.641 0-5.694 2.467-8.478 1.265-11.451 0-3.037-1.265-6.2-2.594-11.7 0a1.147 1.147 0 10.949 2.088c4.618-2.151 7.023-1.139 9.806.063a15.822 15.822 0 006.39 1.582 17.316 17.316 0 006.9-1.645c4.618-2.151 7.023-1.139 9.806.063a15.822 15.822 0 006.39 1.582 17.316 17.316 0 006.9-1.645 1.189 1.189 0 00.62-1.519zM48.434 51.625a1.108 1.108 0 00-1.518-.569c-5.694 2.467-8.478 1.265-11.451 0-3.037-1.265-6.137-2.594-11.641 0-5.694 2.467-8.478 1.265-11.451 0-3.037-1.265-6.137-2.594-11.7 0a1.16 1.16 0 00-.569 1.518 1.257 1.257 0 001.582.569c4.618-2.151 7.023-1.139 9.806.063a15.822 15.822 0 006.39 1.582 17.318 17.318 0 006.9-1.645c4.618-2.151 7.023-1.139 9.806.063a15.822 15.822 0 006.39 1.582 17.318 17.318 0 006.9-1.645 1.108 1.108 0 00.556-1.518z"/></svg>