<svg xmlns="http://www.w3.org/2000/svg" width="22.578" height="22.578"><defs><style>.a{fill:#5eaab4}</style></defs><path class="a" d="M22.346.029a.376.376 0 00-.41.082L.11 21.936a.376.376 0 00.266.642H22.2a.376.376 0 00.376-.376V.376a.376.376 0 00-.23-.347zm-.52 7.5H20.32v.753h1.505v.753h-.753v.753h.753v.753H20.32v.753h1.505v.753h-.753v.753h.753v.753H20.32v.747h1.505v.753h-.753v.747h.753v.753H20.32v.753h1.505v.753h-.753v.753h.753v.753H20.32v.753h1.505v1.505H1.285l2.458-2.458 1.237 1.24.532-.532-1.237-1.237.533-.533.707.707.532-.533-.707-.707.533-.533 1.237 1.24.532-.532L6.4 16.708l.531-.531.7.7.532-.532-.7-.7L8 15.11l1.239 1.236.531-.533-1.238-1.235.532-.532.7.706.532-.532-.706-.706.532-.532 1.236 1.238.533-.531-1.236-1.239.533-.533.7.7.532-.532-.7-.7.531-.531 1.249 1.235.532-.532-1.242-1.237.533-.533.707.707.533-.532-.708-.7.533-.533 1.237 1.237.532-.532-1.237-1.242.531-.531.7.7.532-.532-.7-.707.532-.532 1.235 1.238.533-.533-1.236-1.232.533-.533.7.7.532-.532-.7-.7.531-.531L19.881 5.7l.532-.532-1.237-1.234 2.65-2.65z"/><path class="a" d="M18.583 9.114a.376.376 0 00-.41.082l-8.978 8.977a.376.376 0 00.266.642h8.981a.376.376 0 00.376-.376V9.461a.376.376 0 00-.235-.347zm-.52 8.949H10.37l7.693-7.693z"/></svg>