<svg xmlns="http://www.w3.org/2000/svg" width="65.59" height="26.239"><path d="M27.329 9.839h4.372v2.187h-4.372zm0 0"/><path d="M64.652 6.57l-7.426-1.062a37.477 37.477 0 00-4.208-2.23A36.813 36.813 0 0037.788 0H36.5a37.158 37.158 0 00-17.745 4.525l-3.747 2.044a25.83 25.83 0 00-12.5 3.389A4.991 4.991 0 000 14.279v6.491a1.093 1.093 0 001.093 1.093h3.671a6.535 6.535 0 0012.334 0H46.3a6.535 6.535 0 0012.334 0h.392a1.1 1.1 0 00.407-.078l3.541-1.421a4.134 4.134 0 002.616-3.856V7.652a1.094 1.094 0 00-.938-1.082zM15.216 20.552a4.373 4.373 0 11.088-.875 4.372 4.372 0 01-.088.875zm19.766-.875H17.49a6.559 6.559 0 10-13.118 0H2.186v-5.4a2.8 2.8 0 011.407-2.423A23.635 23.635 0 0115.3 8.745h19.681zm0-13.118h-15.39l.211-.115a34.954 34.954 0 0115.179-4.21zm2.186-4.373h.619A34.6 34.6 0 0150.649 4.65L48.74 6.559H37.167zm19.588 18.366a4.373 4.373 0 11.088-.875 4.373 4.373 0 01-.088.875zM63.4 9.838h-3.28v2.187h3.28v4.483a1.957 1.957 0 01-1.237 1.826l-3.136 1.259c0-.1-.013-.2-.019-.3s-.009-.218-.02-.328-.033-.219-.05-.328-.031-.219-.052-.318-.054-.21-.082-.314-.05-.209-.083-.311-.072-.2-.109-.3-.071-.2-.109-.3-.09-.188-.136-.281-.091-.195-.142-.289-.109-.174-.159-.261-.109-.187-.171-.277-.12-.161-.181-.242-.128-.176-.2-.26-.135-.15-.2-.219-.143-.161-.218-.238-.15-.137-.225-.2-.157-.148-.24-.219-.167-.125-.25-.188-.166-.129-.254-.187-.186-.109-.28-.17-.171-.109-.259-.156-.2-.1-.3-.145-.179-.091-.272-.13-.219-.081-.328-.12-.181-.07-.274-.1c-.125-.038-.252-.066-.379-.1-.083-.019-.163-.046-.247-.063-.134-.028-.272-.043-.409-.063-.081-.011-.158-.028-.239-.036a6.644 6.644 0 00-.667-.034 6.565 6.565 0 00-6.559 6.559h-8.746V8.745h12.024a1.091 1.091 0 00.773-.32L52.8 5.59a35.054 35.054 0 013.465 1.9 1.1 1.1 0 00.424.155l6.714.959zm0 0"/></svg>