<svg xmlns="http://www.w3.org/2000/svg" width="58.136" height="45.063"><path d="M34.29 17.068a11.884 11.884 0 00-2.961-1.84 4.244 4.244 0 001.322-2.952c0-2.717-3.081-5.058-7.736-5.943a6.262 6.262 0 00.046-.75A6.337 6.337 0 0021.805.116a.853.853 0 00-.855 0A6.3 6.3 0 0018.35 3a6.333 6.333 0 00-3.876-.2.853.853 0 00-.6.6 6.333 6.333 0 00.141 3.711C10.92 8.279 9.1 10.173 9.1 12.276a4.244 4.244 0 001.323 2.953c-3.172 1.432-4.963 3.466-4.963 5.694 0 1.794 1.167 3.432 3.172 4.731a21.093 21.093 0 00-5.546 2.277C.536 29.531 0 31.19 0 32.299c0 4.529 8.142 7.25 16.212 7.939h.073a.853.853 0 00.072-1.7c-9.516-.812-14.65-3.821-14.65-6.239 0-2.092 3.567-4.219 9.088-5.419a.838.838 0 00.131-.041 25.258 25.258 0 008.129 1.711h.045a.853.853 0 00.048-1.705 22.054 22.054 0 01-8.748-2.136c-2.087-1.1-3.236-2.441-3.236-3.787 0-1.665 1.783-3.329 4.786-4.484a17.388 17.388 0 008.923 2.152 17.388 17.388 0 008.927-2.154 11.35 11.35 0 013.366 1.912.853.853 0 001.125-1.283zm-12.913-15.2a4.594 4.594 0 011.006 6.4 6.326 6.326 0 00-1.815-3.832 6.255 6.255 0 00-.717-.615 4.588 4.588 0 011.526-1.949zM15.411 4.34a4.6 4.6 0 015.246 5.246 4.6 4.6 0 01-5.246-5.246zm12.807 11.03a16.824 16.824 0 01-7.341 1.509 16.824 16.824 0 01-7.341-1.509c-1.733-.867-2.727-2-2.727-3.1 0-1.376 1.51-2.742 3.978-3.63a6.267 6.267 0 00.714.856 6.337 6.337 0 005.412 1.777 2.594 2.594 0 00.894-.229 6.338 6.338 0 002.675-3.061c3.774.694 6.463 2.459 6.463 4.288 0 1.107-.994 2.236-2.727 3.103z"/><path d="M57.653 29.952a15.438 15.438 0 00-6.888-1.531 15.519 15.519 0 00-1.532-6.883.853.853 0 00-.832-.481 15.516 15.516 0 00-6.719 2.11 15.438 15.438 0 00-4.762-5.186.854.854 0 00-.961 0 15.44 15.44 0 00-4.766 5.194 15.512 15.512 0 00-6.732-2.118.853.853 0 00-.832.481 15.516 15.516 0 00-1.532 6.882 15.436 15.436 0 00-6.888 1.531.853.853 0 00-.481.832 15.417 15.417 0 0021.7 12.92 15.417 15.417 0 0021.7-12.92.854.854 0 00-.475-.831zm-9.712-7.135a13.811 13.811 0 011.117 5.72 15.394 15.394 0 00-5.4 1.718 15.4 15.4 0 00-1.219-5.55 13.8 13.8 0 015.501-1.888zm-23.019 0a13.8 13.8 0 015.517 1.9 15.4 15.4 0 00-1.216 5.551 15.4 15.4 0 00-5.418-1.727 13.808 13.808 0 011.116-5.724zm-1.673 18.7a13.709 13.709 0 01-6.762-10.275 13.71 13.71 0 0112.279.718c.179.1.356.212.529.323a15.413 15.413 0 005.441 10.262 13.707 13.707 0 01-11.488-1.025zm26.365 0a13.707 13.707 0 01-11.477 1.032 15.6 15.6 0 003.283-3.809.853.853 0 10-1.457-.889 13.885 13.885 0 01-3.522 3.867 13.71 13.71 0 010-21.986 13.727 13.727 0 014.73 15.585.853.853 0 001.608.572 15.315 15.315 0 00.81-3.621c.166-.106.337-.21.509-.308a13.709 13.709 0 0112.279-.718 13.709 13.709 0 01-6.764 10.278z"/></svg>